# Wavefront Obj file
# 
# verts: 89 uv-s: 183
mtllib Long Range Turret.mtl

g Turret_Long_Base

v 39.469086 -1.754326 -25.361076
v 18.377306 0.196495 -42.764008
v -5.899352 0.196495 -49.268925
v -30.601519 0.566109 -44.180977
v -49.208046 0.196495 -26.042299
v -57.040764 -0.519341 -2.473788
v -47.947758 0.196495 23.561054
v -30.176001 0.196495 41.332802
v -5.899352 0.196495 47.837708
v 18.377306 0.196495 41.332802
v 36.149063 0.196495 23.561054
v 42.653961 0.196495 -0.715607
v -5.899352 0.196495 -0.715607
v 29.936602 115.893013 -21.405502
v 17.993624 113.325539 -37.050125
v 22.965055 117.739464 -46.575512
v 40.362282 119.190552 -27.424763
v -5.899352 115.893013 -42.095402
v -5.222338 117.786560 -54.453125
v -26.589252 115.893013 -36.551559
v -33.594910 119.759071 -48.069469
v -41.735310 115.893013 -21.405502
v -52.160965 119.019577 -27.377691
v -47.279129 115.893013 -0.715603
v -59.317665 116.870827 -0.755102
v -41.735310 115.893013 19.974295
v -52.160965 115.792274 25.993549
v -26.589252 115.893013 35.120342
v -32.608513 115.792274 45.546009
v -5.899352 115.893013 40.664192
v -5.899352 115.792274 52.702705
v 14.790548 115.893013 35.120342
v 20.809820 115.792274 45.546009
v 29.936602 115.893013 19.974295
v 40.362282 115.792274 25.993549
v 35.480446 115.893013 -0.715603
v 47.518967 115.792274 -0.715603
v -10.653212 182.209274 -1.226295
v -5.360363 105.786873 -43.740017
v 18.495455 105.991150 -36.917942
v 30.488119 105.622002 -21.723921
v 36.117264 105.622002 -0.715604
v 30.488119 105.622002 20.292713
v 15.108973 105.622002 35.671852
v -5.899352 105.622002 41.301025
v -26.907671 105.622002 35.671852
v -42.286808 105.622002 20.292713
v -47.915985 105.622002 -0.715604
v -42.286808 105.622002 -21.723921
v -26.540319 105.372398 -37.384247
v -5.638496 58.952656 -45.841648
v 18.494120 62.805061 -39.624882
v 30.704111 61.803036 -23.082373
v 36.000130 61.803036 -1.287050
v 32.841019 61.803036 21.651157
v 16.467424 61.803036 38.024761
v -5.899352 61.803036 44.017929
v -28.266096 61.803036 38.024761
v -44.639717 61.803036 21.651157
v -50.632874 61.803036 -0.715605
v -44.819664 58.827843 -25.071035
v -28.969685 58.075802 -42.358658
v -5.898893 64.232933 -44.202839
v 13.141073 98.380379 -39.531647
v 11.970654 65.182617 -39.965508
v -22.325745 68.199516 -41.905968
v -23.328585 99.409637 -41.227688
v -5.856225 67.315201 -32.243137
v -4.671824 100.723419 -31.126415
v 10.749144 95.009109 -25.678337
v 9.875456 67.713921 -27.019630
v -19.064421 66.314865 -27.080753
v -20.837463 94.161484 -25.503349
# 73 positions

vt 0.369739 0.381868
vt 0.335007 0.458306
vt 0.226006 0.343497
vt 0.369677 0.304895
vt 0.335007 0.235863
vt 0.266574 0.195224
vt 0.190611 0.190738
vt 0.120796 0.238319
vt 0.082311 0.304980
vt 0.082295 0.381953
vt 0.120751 0.448631
vt 0.187385 0.487164
vt 0.264358 0.487235
vt 0.710989 0.739902
vt 0.677572 0.790176
vt 0.682951 0.713710
vt 0.642797 0.782390
vt 0.678234 0.864799
vt 0.640568 0.872045
vt 0.710989 0.921024
vt 0.680973 0.951650
vt 0.767475 0.953524
vt 0.757136 0.990000
vt 0.832848 0.953794
vt 0.841999 0.989514
vt 0.889513 0.920679
vt 0.915569 0.946640
vt 0.922183 0.863490
vt 0.957823 0.872808
vt 0.922288 0.797482
vt 0.957869 0.787671
vt 0.889695 0.740062
vt 0.915640 0.713719
vt 0.832899 0.706621
vt 0.842134 0.670773
vt 0.767213 0.706474
vt 0.757074 0.670864
vt 0.408325 0.550042
vt 0.220443 0.504713
vt 0.430130 0.468712
vt 0.632541 0.633089
vt 0.632541 0.844893
vt 0.573856 0.821236
vt 0.391639 0.626141
vt 0.217010 0.581483
vt 0.370042 0.701032
vt 0.200755 0.651345
vt 0.604568 0.615787
vt 0.647728 0.441052
vt 0.682693 0.630761
vt 0.177243 0.718893
vt 0.530308 0.600329
vt 0.575418 0.413587
vt 0.450251 0.573883
vt 0.507179 0.393533
vt 0.380661 0.784007
vt 0.191673 0.777951
vt 0.381894 0.707026
vt 0.439754 0.371317
vt 0.376963 0.860910
vt 0.188266 0.848804
vt 0.370804 0.937655
vt 0.182591 0.919511
vt 0.484722 0.597694
vt 0.438928 0.780841
vt 0.410012 0.579578
vt 0.174654 0.990000
vt 0.558356 0.617625
vt 0.507451 0.800521
vt 0.712914 0.662128
vt 0.969603 0.576895
vt 0.973934 0.662128
vt 0.392956 0.259257
vt 0.172664 0.119245
vt 0.223797 0.058524
vt 0.304079 0.018610
vt 0.392956 0.010000
vt 0.403366 0.022049
vt 0.652623 0.022049
vt 0.633906 0.105160
vt 0.595895 0.180858
vt 0.534561 0.239544
vt 0.457239 0.274132
vt 0.898583 0.293819
vt 0.686762 0.146917
vt 0.742281 0.082941
vt 0.815437 0.040243
vt 0.898583 0.024057
vt 0.930016 0.502008
vt 0.075098 0.545462
vt 0.044287 0.540374
vt 0.091087 0.471565
vt 0.068673 0.468712
vt 0.585037 0.968176
vt 0.579205 0.990000
vt 0.529511 0.948078
vt 0.519513 0.978022
vt 0.466322 0.928127
vt 0.456920 0.958226
vt 0.402630 0.909607
vt 0.393939 0.939932
vt 0.048721 0.906606
vt 0.041266 0.972813
vt 0.017342 0.903580
vt 0.010000 0.968785
vt 0.054051 0.840193
vt 0.022591 0.838174
vt 0.057251 0.773643
vt 0.025743 0.772634
vt 0.058318 0.707026
vt 0.026794 0.707026
vt 0.610805 0.283720
vt 0.546878 0.265039
vt 0.619153 0.253307
vt 0.556174 0.234918
vt 0.675322 0.300140
vt 0.682693 0.269512
vt 0.060077 0.611649
vt 0.040110 0.676837
vt 0.028481 0.604478
vt 0.010000 0.667559
vt 0.909672 0.820280
vt 0.889844 0.869508
vt 0.807637 0.810932
vt 0.806449 0.861711
vt 0.807637 0.767382
vt 0.893246 0.766584
vt 0.110432 0.493962
vt 0.208236 0.522170
vt 0.200353 0.578087
vt 0.175383 0.624122
vt 0.082388 0.603512
vt 0.010000 0.408078
vt 0.031174 0.349385
vt 0.051664 0.406589
vt 0.074476 0.358671
vt 0.376535 0.366100
vt 0.416652 0.374141
vt 0.376535 0.467869
vt 0.419672 0.457845
vt 0.070582 0.293434
vt 0.032752 0.293970
vt 0.056324 0.238934
vt 0.016025 0.246010
vt 0.061638 0.344906
vt 0.016025 0.334180
vt 0.094085 0.549686
vt 0.189726 0.546926
vt 0.090328 0.596393
vt 0.175941 0.596393
vt 0.023673 0.465382
vt 0.074476 0.457899
# 152 texture coordinates

vn -0.032368 -0.999301 -0.018688
vn -0.031125 -0.999278 0.021802
vn -0.003742 -0.999991 0.002070
vn -0.007645 -0.999971 0.000000
vn -0.003505 -0.999973 -0.006511
vn 0.011241 -0.999752 -0.019222
vn 0.014068 -0.999899 -0.002088
vn 0.006786 -0.999908 0.011753
vn 0.000000 -1.000000 0.000000
vn 0.000000 -1.000000 0.000000
vn 0.000000 -1.000000 0.000000
vn 0.000000 -1.000000 0.000000
vn 0.000000 -0.999143 0.041403
vn 0.273985 -0.960351 -0.051553
vn 0.325411 -0.925858 -0.192080
vn 0.298503 -0.947272 -0.116501
vn 0.342223 -0.907895 -0.242095
vn -0.007838 -0.905726 -0.423791
vn 0.029380 -0.976567 -0.213199
vn 0.007039 -0.939696 -0.341937
vn 0.040045 -0.987997 -0.149195
vn -0.041139 -0.987287 -0.153534
vn -0.103335 -0.968678 -0.225801
vn -0.071986 -0.979238 -0.189500
vn -0.122604 -0.960975 -0.247985
vn -0.200173 -0.959094 -0.200173
vn -0.184184 -0.963175 -0.195883
vn -0.192461 -0.961099 -0.198109
vn -0.178037 -0.964666 -0.194223
vn -0.251051 -0.965634 -0.067269
vn -0.123065 -0.988001 -0.093326
vn -0.193821 -0.977836 -0.079178
vn -0.080207 -0.991587 -0.101594
vn -0.081009 -0.996477 0.021706
vn -0.028525 -0.999330 -0.022944
vn -0.057638 -0.998336 0.001796
vn -0.011786 -0.999241 -0.037138
vn 0.006126 -0.999963 -0.006126
vn 0.006126 -0.999962 -0.006126
vn 0.006126 -0.999963 -0.006126
vn 0.006126 -0.999962 -0.006126
vn 0.002242 -0.999962 -0.008368
vn 0.002242 -0.999962 -0.008368
vn 0.002242 -0.999963 -0.008368
vn 0.002242 -0.999963 -0.008368
vn -0.002242 -0.999962 -0.008368
vn -0.002242 -0.999962 -0.008368
vn -0.002242 -0.999962 -0.008368
vn -0.002242 -0.999962 -0.008368
vn -0.006126 -0.999963 -0.006126
vn -0.006126 -0.999962 -0.006126
vn -0.006126 -0.999963 -0.006126
vn -0.006126 -0.999963 -0.006126
vn -0.008368 -0.999962 -0.002242
vn -0.008368 -0.999962 -0.002242
vn -0.008368 -0.999963 -0.002242
vn -0.008368 -0.999962 -0.002242
vn -0.008368 -0.999963 0.002242
vn 0.152914 -0.979015 -0.134714
vn 0.065051 -0.996069 -0.060131
vn 0.202555 -0.963175 -0.176822
vn 0.638041 0.037371 -0.769095
vn 0.785630 0.072546 -0.614429
vn 0.676294 0.057468 -0.734386
vn 0.801604 0.084421 -0.591866
vn 0.258426 0.055110 -0.964458
vn 0.245809 0.049766 -0.968040
vn 0.254260 0.053344 -0.965664
vn 0.241962 0.048138 -0.969091
vn -0.201074 0.036724 -0.978887
vn -0.162664 0.052795 -0.985268
vn -0.188295 0.042094 -0.981210
vn -0.149539 0.058238 -0.987039
vn -0.697267 0.064015 -0.713947
vn -0.724309 0.075962 -0.685279
vn -0.706704 0.058798 -0.705062
vn -0.733446 0.074232 -0.675682
vn -0.944589 0.105887 -0.310707
vn -0.964984 0.074939 -0.251378
vn -0.950674 0.098882 -0.294010
vn -0.968001 0.073307 -0.240000
vn -0.942848 0.060784 0.327631
vn -0.960894 0.071802 0.267447
vn -0.947817 0.068028 0.311472
vn -0.963127 0.076063 0.258069
vn -0.705842 0.059783 0.705842
vn -0.705842 0.059783 0.705842
vn -0.705842 0.059783 0.705842
vn -0.705842 0.059783 0.705842
vn -0.258356 0.059783 0.964198
vn -0.258357 0.059783 0.964198
vn -0.258356 0.059783 0.964198
vn -0.258357 0.059783 0.964198
vn 0.258356 0.059783 0.964198
vn 0.258356 0.059783 0.964198
vn 0.258356 0.059783 0.964198
vn 0.258356 0.059783 0.964198
vn 0.705842 0.059783 0.705842
vn 0.705842 0.059783 0.705842
vn 0.705842 0.059783 0.705842
vn 0.705842 0.059783 0.705842
vn 0.960471 0.106123 0.257357
vn 0.984056 0.054228 0.169389
vn 0.968522 0.095124 0.230037
vn 0.989020 0.057329 0.136210
vn 0.980493 0.140157 -0.137801
vn 0.972046 0.058454 -0.227396
vn 0.978471 0.132280 -0.158416
vn 0.970422 0.051755 -0.235802
vn 0.747525 0.653829 -0.117110
vn 0.747525 0.653829 -0.117110
vn 0.747525 0.653829 -0.117110
vn 0.534124 0.654730 -0.534827
vn 0.534124 0.654730 -0.534827
vn 0.534124 0.654730 -0.534827
vn 0.209295 0.633258 -0.745104
vn 0.209295 0.633258 -0.745104
vn 0.209295 0.633258 -0.745104
vn -0.129734 0.625033 -0.769742
vn -0.129734 0.625033 -0.769742
vn -0.129734 0.625033 -0.769742
vn -0.601054 0.609004 -0.517541
vn -0.601054 0.609004 -0.517541
vn -0.601054 0.609004 -0.517541
vn -0.791534 0.588347 -0.165294
vn -0.791534 0.588347 -0.165294
vn -0.791534 0.588347 -0.165294
vn -0.779315 0.582111 0.231980
vn -0.779315 0.582111 0.231980
vn -0.779315 0.582111 0.231980
vn -0.570657 0.590510 0.570657
vn -0.570657 0.590510 0.570657
vn -0.570657 0.590510 0.570657
vn -0.205488 0.607990 0.766892
vn -0.205488 0.607990 0.766892
vn -0.205488 0.607990 0.766892
vn 0.201824 0.626041 0.753219
vn 0.201824 0.626041 0.753219
vn 0.201824 0.626041 0.753219
vn 0.543322 0.640002 0.543322
vn 0.543322 0.640002 0.543322
vn 0.543322 0.640002 0.543322
vn 0.736700 0.646766 0.197398
vn 0.736700 0.646766 0.197398
vn 0.736700 0.646766 0.197398
vn 0.269675 0.168665 -0.948065
vn 0.258435 0.136662 -0.956313
vn 0.223408 0.041196 -0.973854
vn 0.206242 -0.003523 -0.978495
vn 0.787706 0.034863 -0.615065
vn 0.785918 0.048280 -0.616443
vn 0.786442 0.039908 -0.616374
vn 0.788488 0.061312 -0.611987
vn 0.966264 0.034415 -0.255243
vn 0.965301 0.035961 -0.258651
vn 0.964198 0.059782 -0.258356
vn 0.964198 0.059784 -0.258356
vn 0.970128 0.036455 0.239838
vn 0.965583 0.026634 0.258727
vn 0.964198 0.059783 0.258356
vn 0.964198 0.059782 0.258356
vn 0.705842 0.059783 0.705842
vn 0.705842 0.059783 0.705842
vn 0.705842 0.059783 0.705842
vn 0.705842 0.059784 0.705842
vn 0.258357 0.059783 0.964198
vn 0.258357 0.059783 0.964198
vn 0.258357 0.059783 0.964198
vn 0.258357 0.059783 0.964198
vn -0.258357 0.059783 0.964198
vn -0.258357 0.059783 0.964198
vn -0.258357 0.059783 0.964198
vn -0.258356 0.059783 0.964198
vn -0.705842 0.059783 0.705842
vn -0.705842 0.059783 0.705842
vn -0.705842 0.059782 0.705842
vn -0.705842 0.059783 0.705842
vn -0.964198 0.059784 0.258357
vn -0.964198 0.059783 0.258356
vn -0.964198 0.059784 0.258356
vn -0.964199 0.059782 0.258355
vn -0.964921 0.061406 -0.255257
vn -0.964198 0.059784 -0.258356
vn -0.964198 0.059783 -0.258356
vn -0.964198 0.059785 -0.258355
vn -0.707276 0.074392 -0.703013
vn -0.703559 0.073068 -0.706870
vn -0.704332 0.054707 -0.707759
vn -0.705842 0.059782 -0.705842
vn -0.287128 0.138921 -0.947765
vn -0.266445 0.093160 -0.959337
vn -0.279201 0.121227 -0.952550
vn -0.258089 0.075035 -0.963203
vn 0.339434 0.019402 -0.940430
vn 0.332300 0.024256 -0.942862
vn 0.323017 0.030542 -0.945900
vn 0.314075 0.036566 -0.948694
vn -0.365804 0.029402 -0.930228
vn -0.349481 0.039983 -0.936090
vn -0.358346 0.034250 -0.932960
vn -0.343944 0.043547 -0.937980
vn 0.271303 0.136340 -0.952789
vn 0.271303 0.136340 -0.952789
vn 0.271303 0.136340 -0.952789
vn 0.370016 0.058107 -0.927206
vn 0.097683 0.017306 -0.995067
vn 0.348303 0.054862 -0.935775
vn 0.056163 0.011067 -0.998360
vn 0.178678 0.359008 -0.916072
vn 0.201646 0.307245 -0.930021
vn 0.181505 0.352775 -0.917935
vn 0.205059 0.299327 -0.931855
vn -0.151388 0.143087 -0.978063
vn -0.138931 0.164891 -0.976478
vn -0.094322 0.240915 -0.965952
vn -0.062646 0.293015 -0.954053
vn -0.670538 0.111581 -0.733436
vn -0.635341 0.107633 -0.764694
vn -0.116151 0.043003 -0.992300
vn 0.033359 0.022787 -0.999184
vn -0.268908 0.415309 -0.869026
vn -0.268908 0.415309 -0.869026
vn -0.268908 0.415309 -0.869026
vn 0.011721 -0.927734 -0.373058
vn -0.262217 -0.917182 -0.300033
vn -0.012441 -0.937008 -0.349087
vn -0.249482 -0.930143 -0.269431
vn -0.985319 0.036917 -0.166685
vn -0.985542 0.037539 -0.165220
vn -0.985951 0.038696 -0.162488
vn -0.986218 0.039463 -0.160678
vn 0.103728 0.963045 -0.248567
vn 0.058553 0.987075 -0.149177
vn 0.025241 0.977042 -0.211548
vn 0.036878 0.981855 -0.186013
vn 0.077630 0.996133 -0.041151
vn -0.023773 0.991068 0.131219
vn 0.976965 0.035963 -0.210346
vn 0.985438 0.058767 -0.159554
vn 0.981334 0.046695 -0.186557
vn 0.988594 0.070485 -0.133093
vn 0.255097 -0.899729 -0.354136
vn 0.248915 -0.906178 -0.341880
# 243 normals

usemtl initialShadingGroup
s 1
f 2/1/1 1/2/2 13/3/3
f 3/4/4 2/1/1 13/3/3
f 4/5/5 3/4/4 13/3/3
f 5/6/6 4/5/5 13/3/3
f 6/7/7 5/6/6 13/3/3
f 7/8/8 6/7/7 13/3/3
f 8/9/9 7/8/8 13/3/3
f 9/10/10 8/9/9 13/3/3
f 10/11/11 9/10/10 13/3/3
f 11/12/12 10/11/11 13/3/3
f 12/13/13 11/12/12 13/3/3
f 1/2/2 12/13/13 13/3/3
s 2
f 14/14/14 15/15/15 17/16/16
f 17/16/16 15/15/15 16/17/17
s 3
f 15/15/18 18/18/19 16/17/20
f 16/17/20 18/18/19 19/19/21
s 4
f 18/18/22 20/20/23 19/19/24
f 19/19/24 20/20/23 21/21/25
s 5
f 20/20/26 22/22/27 21/21/28
f 21/21/28 22/22/27 23/23/29
s 6
f 22/22/30 24/24/31 23/23/32
f 23/23/32 24/24/31 25/25/33
s 7
f 24/24/34 26/26/35 25/25/36
f 25/25/36 26/26/35 27/27/37
s 8
f 26/26/38 28/28/39 27/27/40
f 27/27/40 28/28/39 29/29/41
s 9
f 28/28/42 30/30/43 29/29/44
f 29/29/44 30/30/43 31/31/45
s 10
f 30/30/46 32/32/47 31/31/48
f 31/31/48 32/32/47 33/33/49
s 11
f 32/32/50 34/34/51 33/33/52
f 33/33/52 34/34/51 35/35/53
s 12
f 34/34/54 36/36/55 35/35/56
f 35/35/56 36/36/55 37/37/57
s 13
f 36/36/58 14/14/59 37/37/60
f 37/37/60 14/14/59 17/16/61
s 14
f 2/38/62 52/39/63 1/40/64
f 1/41/64 52/42/63 53/43/65
f 40/94/150 15/95/151 41/96/152
f 41/96/152 15/95/151 14/97/153
f 52/42/63 40/94/150 53/43/65
f 53/43/65 40/94/150 41/96/152
s 15
f 3/44/66 51/45/67 2/38/68
f 2/38/68 51/45/67 52/39/69
s 16
f 4/46/70 62/47/71 3/44/72
f 3/44/72 62/47/71 51/45/73
s 17
f 5/48/74 61/49/75 4/50/76
f 4/46/76 61/51/75 62/47/77
f 50/118/186 49/119/187 20/120/188
f 20/120/188 49/119/187 22/121/189
f 62/47/77 61/51/75 50/118/186
f 50/118/186 61/51/75 49/119/187
s 18
f 6/52/78 60/53/79 5/48/80
f 5/48/80 60/53/79 61/49/81
f 49/116/182 48/112/183 22/117/184
f 22/117/184 48/112/183 24/114/185
f 61/49/81 60/53/79 49/116/182
f 49/116/182 60/53/79 48/112/183
s 19
f 7/54/82 59/55/83 6/52/84
f 6/52/84 59/55/83 60/53/85
f 48/112/178 47/113/179 24/114/180
f 24/114/180 47/113/179 26/115/181
f 60/53/85 59/55/83 48/112/178
f 48/112/178 59/55/83 47/113/179
s 20
f 8/56/86 58/57/87 7/58/88
f 7/54/88 58/59/87 59/55/89
f 47/110/174 46/108/175 26/111/176
f 26/111/176 46/108/175 28/109/177
f 59/55/89 58/59/87 47/113/174
f 47/110/174 58/57/87 46/108/175
s 21
f 9/60/90 57/61/91 8/56/92
f 8/56/92 57/61/91 58/57/93
f 46/108/170 45/106/171 28/109/172
f 28/109/172 45/106/171 30/107/173
f 58/57/93 57/61/91 46/108/170
f 46/108/170 57/61/91 45/106/171
s 22
f 10/62/94 56/63/95 9/60/96
f 9/60/96 56/63/95 57/61/97
f 45/106/166 44/102/167 30/107/168
f 30/107/168 44/102/167 32/104/169
f 57/61/97 56/63/95 45/106/166
f 45/106/166 56/63/95 44/102/167
s 23
f 11/64/98 55/65/99 10/66/100
f 10/62/100 55/67/99 56/63/101
f 44/102/162 43/103/163 32/104/164
f 32/104/164 43/103/163 34/105/165
f 56/63/101 55/67/99 44/102/162
f 44/102/162 55/67/99 43/103/163
s 24
f 12/68/102 54/69/103 11/64/104
f 11/64/104 54/69/103 55/65/105
f 43/100/158 42/98/159 34/101/160
f 34/101/160 42/98/159 36/99/161
f 55/65/105 54/69/103 43/100/158
f 43/100/158 54/69/103 42/98/159
s 25
f 1/41/106 53/43/107 12/68/108
f 12/68/108 53/43/107 54/69/109
f 42/98/154 41/96/155 36/99/156
f 36/99/156 41/96/155 14/97/157
f 54/69/109 53/43/107 42/98/154
f 42/98/154 53/43/107 41/96/155
s 26
f 38/70/110 37/71/111 17/72/112
s 27
f 38/73/113 17/74/114 16/75/115
s 28
f 38/73/116 16/75/117 19/76/118
s 29
f 38/73/119 19/76/120 21/77/121
s 30
f 38/78/122 21/79/123 23/80/124
s 31
f 38/78/125 23/80/126 25/81/127
s 32
f 38/78/128 25/81/129 27/82/130
s 33
f 38/78/131 27/82/132 29/83/133
s 34
f 38/84/134 29/85/135 31/86/136
s 35
f 38/84/137 31/86/138 33/87/139
s 36
f 38/84/140 33/87/141 35/88/142
s 37
f 38/70/143 35/89/144 37/71/145
s 38
f 39/90/146 18/91/147 40/92/148
f 40/92/148 18/91/147 15/93/149
s 39
f 39/90/190 50/118/191 18/91/192
f 18/91/192 50/118/191 20/120/193
s 40
f 69/122/194 70/123/195 68/124/196
f 68/124/196 70/123/195 71/125/197
s 41
f 72/126/198 73/127/199 68/124/200
f 68/124/200 73/127/199 69/122/201
s 42
f 39/90/202 40/92/203 64/128/204
s 43
f 40/92/205 52/39/206 64/128/207
f 64/128/207 52/39/206 65/129/208
s 44
f 52/39/209 51/45/210 65/129/211
f 65/129/211 51/45/210 63/130/212
s 45
f 62/47/213 66/131/214 51/45/215
f 51/45/215 66/131/214 63/130/216
s 46
f 50/118/217 67/132/218 62/47/219
f 62/47/219 67/132/218 66/131/220
s 47
f 50/118/221 39/90/222 67/132/223
s 48
f 39/133/224 64/134/225 69/135/226
f 69/135/226 64/134/225 70/136/227
f 39/133/224 69/135/226 67/151/242
f 67/151/242 69/135/226 73/152/243
s 49
f 65/137/228 71/138/229 64/139/230
f 64/139/230 71/138/229 70/140/231
s 50
f 63/141/232 68/142/233 65/143/234
f 65/143/234 68/142/233 71/144/235
f 63/141/232 66/145/236 68/142/233
f 68/142/233 66/145/236 72/146/237
s 51
f 66/147/238 67/148/239 72/149/240
f 72/149/240 67/148/239 73/150/241

g Turret_Long

v -83.260170 -0.276642 -13.323218
v -4.186853 1.455864 -49.974602
v -46.743076 35.830811 -25.278963
v -29.777937 29.904671 -42.687454
v -41.639217 22.863739 -54.838676
v -23.428024 -0.119133 -74.066940
v -66.492340 -0.010307 -47.790073
v -84.965317 -1.196716 31.439381
v -60.708534 36.606308 13.976974
v -52.798286 42.965717 -0.894184
v -10.336671 182.003143 -1.680030
v -35.858559 193.805664 0.183610
v -10.240269 205.506805 1.145607
v -10.174074 205.387238 2.138009
v -35.792370 193.686081 1.176012
v -10.270475 181.883545 -0.687628
# 16 positions

vt 0.801230 0.716399
vt 0.793210 0.792623
vt 0.736900 0.793104
vt 0.707876 0.896527
vt 0.696280 0.287053
vt 0.721780 0.182705
vt 0.797528 0.317409
vt 0.801230 0.911680
vt 0.825160 0.431531
vt 0.670828 0.383873
vt 0.689683 0.510133
vt 0.825160 0.568782
vt 0.660656 0.463235
vt 0.395574 0.301647
vt 0.481901 0.301647
vt 0.426034 0.367459
vt 0.010000 0.825303
vt 0.010000 0.738975
vt 0.013066 0.739111
vt 0.013066 0.825438
vt 0.687221 0.608443
vt 0.687221 0.522115
vt 0.753033 0.577983
vt 0.238934 0.748066
vt 0.152607 0.748066
vt 0.152472 0.745000
vt 0.238799 0.745000
vt 0.202787 0.732951
vt 0.202787 0.736020
vt 0.130267 0.736020
vt 0.130267 0.732951
# 31 texture coordinates

vn -0.110646 0.902970 -0.415214
vn 0.006775 0.862338 -0.506288
vn 0.126090 0.799983 -0.586625
vn 0.232408 0.725821 -0.647434
vn -0.498070 0.289261 -0.817468
vn -0.498070 0.289261 -0.817468
vn -0.498070 0.289261 -0.817468
vn 0.575299 0.646017 -0.501690
vn 0.575299 0.646017 -0.501690
vn 0.575299 0.646017 -0.501691
vn -0.714840 0.609359 -0.343055
vn -0.697758 0.615085 -0.367157
vn -0.702670 0.613516 -0.360351
vn -0.681086 0.619970 -0.389563
vn -0.720295 0.639436 -0.268880
vn -0.799229 0.586360 -0.131968
vn -0.784028 0.599235 -0.161920
vn -0.845882 0.532946 -0.021268
vn -0.881406 0.347065 -0.320420
vn -0.881406 0.347064 -0.320420
vn -0.881406 0.347065 -0.320420
vn -0.017265 0.119414 -0.992694
vn -0.017265 0.119414 -0.992694
vn -0.017265 0.119414 -0.992694
vn -0.415823 0.899207 0.136081
vn -0.415823 0.899207 0.136081
vn -0.415823 0.899207 0.136081
vn -0.415823 0.899207 0.136081
vn 0.017265 -0.119414 0.992694
vn 0.017265 -0.119413 0.992694
vn 0.017265 -0.119414 0.992694
vn -0.423213 -0.902445 -0.080522
vn -0.423213 -0.902445 -0.080523
vn -0.423213 -0.902445 -0.080522
vn -0.423213 -0.902445 -0.080522
vn 0.997806 0.003853 -0.066091
vn 0.997806 0.003853 -0.066091
vn 0.997806 0.003853 -0.066091
vn 0.997806 0.003853 -0.066091
# 39 normals

usemtl initialShadingGroup
s 52
f 76/153/244 77/154/245 78/155/246
f 78/155/246 77/154/245 79/156/247
s 53
f 78/157/248 79/158/249 80/159/250
s 54
f 75/160/251 79/156/252 77/154/253
s 55
f 74/161/254 76/162/255 80/159/256
f 80/159/256 76/162/255 78/157/257
s 56
f 76/162/258 74/161/259 82/163/260
f 82/163/260 74/161/259 81/164/261
s 57
f 76/162/262 82/163/263 83/165/264
s 58
f 84/166/265 85/167/266 86/168/267
s 59
f 86/169/268 85/170/269 88/171/270 87/172/271
s 60
f 87/173/272 88/174/273 89/175/274
s 61
f 89/176/275 88/177/276 85/178/277 84/179/278
s 62
f 89/180/279 84/181/280 86/182/281 87/183/282

# 156 faces
